<?xml version="1.0" encoding="utf-8"?>
<!-- Generator: Adobe Illustrator 16.0.0, SVG Export Plug-In . SVG Version: 6.00 Build 0)  -->
<!DOCTYPE svg PUBLIC "-//W3C//DTD SVG 1.1//EN" "http://www.w3.org/Graphics/SVG/1.1/DTD/svg11.dtd">
<svg version="1.1" id="Layer_1" xmlns="http://www.w3.org/2000/svg" xmlns:xlink="http://www.w3.org/1999/xlink" x="0px" y="0px"
	 width="232.699px" height="28.947px" viewBox="0 0 232.699 28.947" enable-background="new 0 0 232.699 28.947"
	 xml:space="preserve">
<g>
	<polygon fill="#FFFFFF" points="40.855,24.701 40.855,3.481 67.016,3.481 67.016,7.646 45.021,7.646 45.021,11.984 62.971,11.984 
		62.971,16.152 45.021,16.152 45.021,20.537 67.016,20.537 67.016,24.701 	"/>
	<path fill="#FFFFFF" d="M96.068,19.99c0,3.137-3.107,4.711-9.332,4.711H79.27c-2.01,0-3.91-0.314-5.713-0.949
		c-2.43-0.881-3.65-2.133-3.65-3.762V3.481h4.164v15.39c0,1.113,1.734,1.666,5.199,1.666h7.467c3.447,0,5.166-0.553,5.166-1.666
		V3.481h4.166V19.99z"/>
	<path fill="#FFFFFF" d="M118.99,24.703l-13.381-7.24h-2.494v7.24h-4.166V3.479h16.822c2.645,0,4.617,0.205,5.918,0.604
		c2.279,0.73,3.412,2.106,3.412,4.135v5.139c0,1.361-0.762,2.432-2.293,3.215c-1.264,0.633-2.648,0.951-4.164,0.951h-5.166
		l13.582,7.18H118.99z M120.939,9.023c0-0.914-1.723-1.381-5.168-1.381h-12.656v5.732h15.529c0.441,0,0.912-0.104,1.41-0.272
		c0.588-0.233,0.885-0.538,0.885-0.922V9.023z"/>
	<path fill="#FFFFFF" d="M182.4,13.359c0,1.76-1.197,3.045-3.586,3.85c-1.646,0.574-3.572,0.863-5.771,0.863h-12.635v6.631h-4.168
		V3.481h16.803c6.236,0,9.357,1.578,9.357,4.738V13.359z M178.236,9.397c0-1.168-1.732-1.752-5.193-1.752h-12.635v6.258h12.635
		c1.166,0,2.172-0.096,3.014-0.283c1.457-0.287,2.18-0.786,2.18-1.498V9.397z"/>
	<path fill="#FFFFFF" d="M210.867,19.992c0,1.758-1.186,3.055-3.557,3.877c-1.707,0.555-3.639,0.834-5.801,0.834h-7.436
		c-2.053,0-3.963-0.307-5.746-0.916c-2.412-0.824-3.615-2.088-3.615-3.795V8.218c0-1.813,1.178-3.117,3.527-3.898
		c1.631-0.56,3.572-0.838,5.834-0.838h7.436c6.24,0,9.357,1.58,9.357,4.737V19.992z M206.703,9.313c0-1.111-1.66-1.668-4.994-1.668
		h-7.84c-3.254,0-4.883,0.557-4.883,1.668v9.62c0,1.068,1.629,1.604,4.883,1.604h7.84c3.334,0,4.994-0.535,4.994-1.604V9.313z"/>
	<path fill="#FFFFFF" d="M147.416,3.627c-0.898-0.095-1.891-0.147-2.98-0.147h-7.441c-1.305,0-2.498,0.097-3.592,0.287
		c-0.805,0.131-1.549,0.313-2.242,0.55c-2.35,0.784-3.529,2.087-3.529,3.902v4.661c1.471-0.308,2.902-0.664,4.281-1.042V9.313
		c0-1.113,1.629-1.666,4.881-1.666h6.828c3.148-1.396,5.508-2.668,6.803-3.407C149.582,3.957,148.574,3.751,147.416,3.627"/>
	<path fill="#FFFFFF" d="M148.15,7.997c0.982,0.274,1.477,0.71,1.477,1.316v0.419c1.248-0.683,1.93-1.114,1.93-1.114
		s0.822,0.555,2.234,1.352V8.218c0-0.282-0.029-0.558-0.078-0.814c-1.367-0.774-2.156-1.307-2.156-1.307S150.326,6.868,148.15,7.997
		"/>
	<path fill="#FFFFFF" d="M131.912,14.365c-1.379,0.381-2.811,0.724-4.281,1.039v2.521c1.471-0.311,2.902-0.656,4.281-1.039V14.365z"
		/>
	<path fill="#FFBE00" d="M149.627,12.258v2.525c1.248-0.686,1.928-1.113,1.928-1.113s0.82,0.555,2.236,1.354v-2.528
		c-1.416-0.797-2.236-1.348-2.236-1.348S150.875,11.572,149.627,12.258"/>
	<path fill="#FFBE00" d="M132.029,19.382c-1.404,0.387-2.863,0.747-4.359,1.059c0.113,0.867,0.568,1.611,1.367,2.225
		c2.641-0.611,5.137-1.349,7.443-2.133C133.918,20.505,132.434,20.123,132.029,19.382"/>
	<path fill="#FFBE00" d="M149.627,17.302v1.633c0,1.07-1.666,1.602-4.998,1.602h-1.641c-2.877,1.25-6.355,2.58-10.217,3.686
		c1.34,0.316,2.746,0.48,4.223,0.48h7.441c2.158,0,4.092-0.279,5.795-0.834c2.373-0.822,3.561-2.117,3.561-3.877v-2.445
		c-1.416-0.797-2.236-1.348-2.236-1.348S150.875,16.625,149.627,17.302"/>
	<polygon fill="#FFFFFF" points="213.557,24.703 213.557,3.488 217.715,3.488 217.715,20.537 232.506,20.537 232.506,24.703 	"/>
	<path fill="#FFFFFF" d="M31.65,5.705c0-1.168-0.953-2.117-2.125-2.117H24c0.283,0.186,3.291,2.166,7.65,3.998V5.705z"/>
	<path fill="#FFFFFF" d="M2.629,3.588c-1.172,0-2.123,0.949-2.123,2.117v7.025c13.443-2.769,22.916-8.798,23.447-9.143H2.629z"/>
	<path fill="#FFFFFF" d="M31.65,12.632v-2.528c-4.578-1.916-7.672-4.007-7.672-4.007s-9.637,6.308-23.473,9.161v2.523
		c13.836-2.85,23.473-9.162,23.473-9.162S27.072,10.718,31.65,12.632"/>
	<path fill="#FFBE00" d="M31.65,17.681v-2.525c-4.578-1.916-7.672-4.01-7.672-4.01s-9.637,6.311-23.473,9.161v2.303
		c0,0.076,0.006,0.15,0.012,0.223c13.826-2.852,23.461-9.162,23.461-9.162S27.072,15.765,31.65,17.681"/>
	<path fill="#FFBE00" d="M31.65,22.609v-2.404c-4.578-1.914-7.672-4.008-7.672-4.008s-8.375,5.488-20.721,8.539h26.268
		C30.697,24.736,31.65,23.783,31.65,22.609"/>
</g>
</svg>
